<?xml version="1.0" encoding="UTF-8" standalone="no"?>
<svg
   xmlns:dc="http://purl.org/dc/elements/1.1/"
   xmlns:cc="http://creativecommons.org/ns#"
   xmlns:rdf="http://www.w3.org/1999/02/22-rdf-syntax-ns#"
   xmlns:svg="http://www.w3.org/2000/svg"
   xmlns="http://www.w3.org/2000/svg"
   xmlns:xlink="http://www.w3.org/1999/xlink"
   xmlns:sodipodi="http://sodipodi.sourceforge.net/DTD/sodipodi-0.dtd"
   xmlns:inkscape="http://www.inkscape.org/namespaces/inkscape"
   inkscape:export-ydpi="96"
   inkscape:export-xdpi="96"
   inkscape:export-filename="Template.png"
   width="128"
   height="128"
   id="svg11300"
   sodipodi:version="0.32"
   inkscape:version="1.0.1 (3bc2e813f5, 2020-09-07)"
   sodipodi:docname="icon.svg"
   inkscape:output_extension="org.inkscape.output.svg.inkscape"
   version="1.0"
   style="display:inline;enable-background:new"
   viewBox="0 0 128 128">
  <title
     id="title4162">Adwaita Icon Template</title>
  <defs
     id="defs3">
    <linearGradient
       inkscape:collect="always"
       id="linearGradient2336">
      <stop
         style="stop-color:#b5835a;stop-opacity:1"
         offset="0"
         id="stop2332" />
      <stop
         style="stop-color:#e5a50a;stop-opacity:1;"
         offset="0.09735416"
         id="stop2346" />
      <stop
         style="stop-color:#e5a50a;stop-opacity:1;"
         offset="0.2891157"
         id="stop2340" />
      <stop
         style="stop-color:#b5835a;stop-opacity:1"
         offset="0.4541527"
         id="stop2344" />
      <stop
         style="stop-color:#e5a50a;stop-opacity:1;"
         offset="0.66135293"
         id="stop2342" />
      <stop
         style="stop-color:#e5a50a;stop-opacity:1"
         offset="1"
         id="stop2334" />
    </linearGradient>
    <linearGradient
       y2="236"
       x2="96"
       y1="236"
       x1="32"
       gradientTransform="translate(604.81684,170.58641)"
       gradientUnits="userSpaceOnUse"
       id="linearGradient1099"
       xlink:href="#linearGradient1036" />
    <linearGradient
       id="linearGradient1036">
      <stop
         id="stop1032"
         offset="0"
         style="stop-color:#d5d3cf;stop-opacity:1;" />
      <stop
         id="stop1034"
         offset="1"
         style="stop-color:#f6f5f4;stop-opacity:1" />
    </linearGradient>
    <radialGradient
       r="32"
       fy="-76"
       fx="-244"
       cy="-76"
       cx="-244"
       gradientTransform="matrix(0.88333331,0,0,0.88333331,-460.35018,463.11973)"
       gradientUnits="userSpaceOnUse"
       id="radialGradient1103"
       xlink:href="#linearGradient1069" />
    <linearGradient
       id="linearGradient1069">
      <stop
         id="stop1065"
         offset="0"
         style="stop-color:#d5d3cf;stop-opacity:1" />
      <stop
         id="stop1067-1"
         offset="1"
         style="stop-color:#949390;stop-opacity:1" />
    </linearGradient>
    <linearGradient
       gradientUnits="userSpaceOnUse"
       y2="232"
       x2="64"
       y1="262.5"
       x1="64"
       id="linearGradient1027"
       xlink:href="#linearGradient1025"
       gradientTransform="translate(-470.5864,432.81685)" />
    <linearGradient
       id="linearGradient1025">
      <stop
         id="stop1021"
         offset="0"
         style="stop-color:#9a9996;stop-opacity:1" />
      <stop
         id="stop1023"
         offset="1"
         style="stop-color:#77767b;stop-opacity:1" />
    </linearGradient>
    <inkscape:path-effect
       effect="spiro"
       id="path-effect35304-9"
       is_visible="true" />
    <clipPath
       clipPathUnits="userSpaceOnUse"
       id="clipPath1609-7">
      <path
         sodipodi:nodetypes="cccccc"
         inkscape:connector-curvature="0"
         id="path1611-5"
         d="m 252,116 28,-28 v -8 h -36 v 36 z"
         style="fill:#e74747;stroke:none;stroke-width:0.25px;stroke-linecap:butt;stroke-linejoin:miter;stroke-opacity:1" />
    </clipPath>
    <linearGradient
       inkscape:collect="always"
       xlink:href="#linearGradient2336"
       id="linearGradient2338"
       x1="30.110527"
       y1="281.37623"
       x2="89.888984"
       y2="281.37623"
       gradientUnits="userSpaceOnUse" />
  </defs>
  <sodipodi:namedview
     stroke="#ef2929"
     fill="#f57900"
     id="base"
     pagecolor="#ffffff"
     bordercolor="#666666"
     borderopacity="0.25490196"
     inkscape:pageopacity="0.0"
     inkscape:pageshadow="2"
     inkscape:zoom="2.8284271"
     inkscape:cx="115.6001"
     inkscape:cy="94.904471"
     inkscape:current-layer="layer4"
     showgrid="false"
     inkscape:grid-bbox="true"
     inkscape:document-units="px"
     inkscape:showpageshadow="false"
     inkscape:window-width="1920"
     inkscape:window-height="1016"
     inkscape:window-x="1366"
     inkscape:window-y="27"
     width="400px"
     height="300px"
     inkscape:snap-nodes="true"
     inkscape:snap-bbox="true"
     objecttolerance="7"
     gridtolerance="12"
     guidetolerance="13"
     inkscape:window-maximized="1"
     inkscape:pagecheckerboard="false"
     showguides="false"
     inkscape:guide-bbox="true"
     inkscape:locked="false"
     inkscape:measure-start="0,0"
     inkscape:measure-end="0,0"
     inkscape:object-nodes="true"
     inkscape:bbox-nodes="true"
     inkscape:snap-global="true"
     inkscape:object-paths="true"
     inkscape:snap-intersection-paths="true"
     inkscape:snap-bbox-edge-midpoints="true"
     inkscape:snap-bbox-midpoints="true"
     showborder="true"
     inkscape:snap-center="true"
     inkscape:snap-object-midpoints="true"
     inkscape:snap-midpoints="true"
     inkscape:snap-smooth-nodes="true"
     inkscape:snap-text-baseline="true"
     inkscape:document-rotation="0">
    <inkscape:grid
       type="xygrid"
       id="grid5883"
       spacingx="2"
       spacingy="2"
       enabled="true"
       visible="true"
       empspacing="4"
       originx="0"
       originy="0" />
    <sodipodi:guide
       position="64,8"
       orientation="0,1"
       id="guide1073"
       inkscape:locked="false"
       inkscape:label=""
       inkscape:color="rgb(0,0,255)" />
    <sodipodi:guide
       position="12,64"
       orientation="1,0"
       id="guide1075"
       inkscape:locked="false"
       inkscape:label=""
       inkscape:color="rgb(0,0,255)" />
    <sodipodi:guide
       position="64,104"
       orientation="0,1"
       id="guide1099"
       inkscape:locked="false"
       inkscape:label=""
       inkscape:color="rgb(0,0,255)" />
    <sodipodi:guide
       position="64,128"
       orientation="0,1"
       id="guide993"
       inkscape:locked="false"
       inkscape:label=""
       inkscape:color="rgb(0,0,255)" />
    <sodipodi:guide
       position="104,64"
       orientation="1,0"
       id="guide995"
       inkscape:locked="false"
       inkscape:label=""
       inkscape:color="rgb(0,0,255)" />
    <sodipodi:guide
       position="9.2651362e-08,64"
       orientation="1,0"
       id="guide867"
       inkscape:locked="false"
       inkscape:label=""
       inkscape:color="rgb(0,0,255)" />
    <sodipodi:guide
       position="120,64"
       orientation="1,0"
       id="guide869"
       inkscape:locked="false"
       inkscape:label=""
       inkscape:color="rgb(0,0,255)" />
    <sodipodi:guide
       position="64,116"
       orientation="0,1"
       id="guide871"
       inkscape:locked="false"
       inkscape:label=""
       inkscape:color="rgb(0,0,255)" />
    <inkscape:grid
       type="xygrid"
       id="grid873"
       spacingx="1"
       spacingy="1"
       empspacing="8"
       color="#000000"
       opacity="0.49019608"
       empcolor="#000000"
       empopacity="0.08627451"
       dotted="true" />
    <sodipodi:guide
       position="24,64"
       orientation="1,0"
       id="guide877"
       inkscape:locked="false"
       inkscape:label=""
       inkscape:color="rgb(0,0,255)" />
    <sodipodi:guide
       position="116,64"
       orientation="1,0"
       id="guide879"
       inkscape:locked="false"
       inkscape:label=""
       inkscape:color="rgb(0,0,255)" />
    <sodipodi:guide
       position="64,120"
       orientation="0,1"
       id="guide881"
       inkscape:locked="false"
       inkscape:label=""
       inkscape:color="rgb(0,0,255)" />
    <sodipodi:guide
       position="64,12"
       orientation="0,1"
       id="guide883"
       inkscape:locked="false"
       inkscape:label=""
       inkscape:color="rgb(0,0,255)" />
    <sodipodi:guide
       position="8,64"
       orientation="1,0"
       id="guide885"
       inkscape:locked="false"
       inkscape:label=""
       inkscape:color="rgb(0,0,255)" />
    <sodipodi:guide
       position="128,64"
       orientation="1,0"
       id="guide887"
       inkscape:locked="false"
       inkscape:label=""
       inkscape:color="rgb(0,0,255)" />
    <sodipodi:guide
       position="64,0"
       orientation="0,1"
       id="guide897"
       inkscape:locked="false"
       inkscape:label=""
       inkscape:color="rgb(0,0,255)" />
    <sodipodi:guide
       position="64,24"
       orientation="0,1"
       id="guide899"
       inkscape:locked="false"
       inkscape:label=""
       inkscape:color="rgb(0,0,255)" />
    <sodipodi:guide
       position="256,256"
       orientation="-0.70710678,0.70710678"
       id="guide950"
       inkscape:locked="false"
       inkscape:label=""
       inkscape:color="rgb(0,0,255)" />
    <sodipodi:guide
       position="64,64"
       orientation="0.70710678,0.70710678"
       id="guide952"
       inkscape:locked="false"
       inkscape:label=""
       inkscape:color="rgb(0,0,255)" />
  </sodipodi:namedview>
  <metadata
     id="metadata4">
    <rdf:RDF>
      <cc:Work
         rdf:about="">
        <dc:format>image/svg+xml</dc:format>
        <dc:type
           rdf:resource="http://purl.org/dc/dcmitype/StillImage" />
        <dc:creator>
          <cc:Agent>
            <dc:title>GNOME Design Team</dc:title>
          </cc:Agent>
        </dc:creator>
        <dc:source />
        <cc:license
           rdf:resource="http://creativecommons.org/licenses/by-sa/4.0/" />
        <dc:title>Adwaita Icon Template</dc:title>
        <dc:subject>
          <rdf:Bag />
        </dc:subject>
        <dc:date />
        <dc:rights>
          <cc:Agent>
            <dc:title />
          </cc:Agent>
        </dc:rights>
        <dc:publisher>
          <cc:Agent>
            <dc:title />
          </cc:Agent>
        </dc:publisher>
        <dc:identifier />
        <dc:relation />
        <dc:language />
        <dc:coverage />
        <dc:description />
        <dc:contributor>
          <cc:Agent>
            <dc:title />
          </cc:Agent>
        </dc:contributor>
      </cc:Work>
      <cc:License
         rdf:about="http://creativecommons.org/licenses/by-sa/4.0/">
        <cc:permits
           rdf:resource="http://creativecommons.org/ns#Reproduction" />
        <cc:permits
           rdf:resource="http://creativecommons.org/ns#Distribution" />
        <cc:requires
           rdf:resource="http://creativecommons.org/ns#Notice" />
        <cc:requires
           rdf:resource="http://creativecommons.org/ns#Attribution" />
        <cc:permits
           rdf:resource="http://creativecommons.org/ns#DerivativeWorks" />
        <cc:requires
           rdf:resource="http://creativecommons.org/ns#ShareAlike" />
      </cc:License>
    </rdf:RDF>
  </metadata>
  <g
     id="layer1"
     inkscape:label="App Icon"
     inkscape:groupmode="layer"
     style="display:inline"
     transform="translate(0,-172)" />
  <g
     inkscape:groupmode="layer"
     id="layer4"
     inkscape:label="icon">
    <rect
       style="opacity:0.995;fill:#c0bfbc;stroke-width:1.00157;stroke-linecap:round;stroke-linejoin:round;stop-color:#000000"
       id="rect978"
       width="88"
       height="112"
       x="20"
       y="5"
       rx="8"
       inkscape:label="file_shadow" />
    <rect
       style="display:inline;opacity:1;fill:#f6f5f4;stroke-width:1.00157;stroke-linecap:round;stroke-linejoin:round;stop-color:#000000"
       id="rect2285"
       width="88"
       height="108"
       x="20"
       y="5"
       rx="8"
       inkscape:label="file" />
    <path
       id="path2249"
       style="color:#000000;font-style:normal;font-variant:normal;font-weight:normal;font-stretch:normal;font-size:medium;line-height:normal;font-family:sans-serif;font-variant-ligatures:normal;font-variant-position:normal;font-variant-caps:normal;font-variant-numeric:normal;font-variant-alternates:normal;font-variant-east-asian:normal;font-feature-settings:normal;font-variation-settings:normal;text-indent:0;text-align:start;text-decoration:none;text-decoration-line:none;text-decoration-style:solid;text-decoration-color:#000000;letter-spacing:normal;word-spacing:normal;text-transform:none;writing-mode:lr-tb;direction:ltr;text-orientation:mixed;dominant-baseline:auto;baseline-shift:baseline;text-anchor:start;white-space:normal;shape-padding:0;shape-margin:0;inline-size:0;clip-rule:nonzero;display:inline;overflow:visible;visibility:visible;opacity:1;isolation:auto;mix-blend-mode:normal;color-interpolation:sRGB;color-interpolation-filters:linearRGB;solid-color:#000000;solid-opacity:1;vector-effect:none;fill:#813d9c;fill-opacity:1;fill-rule:nonzero;stroke:none;stroke-width:4.38009;stroke-linecap:round;stroke-linejoin:round;stroke-miterlimit:4;stroke-dasharray:none;stroke-dashoffset:0;stroke-opacity:1;color-rendering:auto;image-rendering:auto;shape-rendering:auto;text-rendering:auto;enable-background:accumulate;stop-color:#000000;stop-opacity:1"
       d="m 60.954561,20.648 c -4.087382,0.008 -8.72135,1.02034 -13.986329,3.29297 -6.23933,2.69321 -10.33275,6.76415 -12.582031,11.45898 -2.249281,4.69484 -2.682973,9.91327 -2.101562,14.98828 1.162821,10.15003 6.262305,19.86078 10.480469,25.18946 a 2.1900451,2.1900451 0 0 0 3.076171,0.35742 2.1900451,2.1900451 0 0 0 0.357422,-3.07617 c -3.643063,-4.60218 -8.533478,-13.98664 -9.5625,-22.96875 -0.514511,-4.49106 -0.09628,-8.84998 1.699219,-12.59766 1.795503,-3.74768 4.938788,-6.98691 10.367188,-9.33008 7.388389,-3.1892 12.803984,-3.49152 17.072265,-2.31445 4.268281,1.17707 7.567032,3.9066 10.480469,7.39453 2.913436,3.48793 5.360056,7.68933 7.859375,11.49609 2.499319,3.80677 5.01901,7.31852 8.664062,9.14063 a 2.1900451,2.1900451 0 0 0 2.939453,-0.98047 2.1900451,2.1900451 0 0 0 -0.980468,-2.9375 c -2.247679,-1.12358 -4.560725,-3.96918 -6.960938,-7.625 -2.400212,-3.65582 -4.918714,-8.02172 -8.160156,-11.90234 -3.241442,-3.88062 -7.287243,-7.32206 -12.677734,-8.8086 -1.347623,-0.37163 -2.767395,-0.61631 -4.265625,-0.7207 -0.561837,-0.0392 -1.134839,-0.0578 -1.71875,-0.0566 z m -0.175782,8.42187 c -3.340386,-0.0619 -7.139553,0.92205 -11.4375,3.13672 -7.39606,3.81109 -10.308434,11.91365 -8.582031,20.88867 1.726403,8.97503 7.720381,19.13931 17.90625,28.81055 a 2.1900451,2.1900451 0 0 0 3.095703,-0.0801 2.1900451,2.1900451 0 0 0 -0.08008,-3.09766 C 51.991401,69.52789 46.542564,59.97434 45.060029,52.26712 c -1.482534,-7.70723 0.628349,-13.25014 6.28711,-16.16602 5.873942,-3.02676 9.71534,-3.1776 12.732422,-2.01367 3.017081,1.16393 5.527505,3.92359 7.958984,7.60938 4.862959,7.37157 8.973063,18.21599 18.537109,22.72265 A 2.1900451,2.1900451 0 0 0 93.49167,63.37259 2.1900451,2.1900451 0 0 0 92.442842,60.45853 C 85.001446,56.95208 80.951655,47.25338 75.694795,39.2847 73.066365,35.30036 70.029442,31.68878 65.655732,30.00149 64.562306,29.57967 63.40589,29.29573 62.183076,29.1597 c -0.458555,-0.051 -0.927099,-0.081 -1.404297,-0.0898 z m -1.591797,8.63868 c -0.850698,0.0161 -1.740069,0.13235 -2.658203,0.36132 -4.355096,1.08613 -7.117009,4.14379 -7.664062,7.77539 -0.547053,3.63161 0.616883,7.58655 2.564453,11.71289 3.89514,8.2527 11.23383,17.28357 18.041016,23.80469 a 2.1900451,2.1900451 0 0 0 3.097656,-0.0664 2.1900451,2.1900451 0 0 0 -0.06641,-3.0957 C 66.029993,72.00125 58.894092,63.11298 55.390104,55.68902 c -1.751996,-3.71198 -2.517903,-7.03693 -2.19336,-9.19141 0.324544,-2.15447 1.235439,-3.39085 4.390625,-4.17773 2.69758,-0.67276 3.721353,-0.26496 4.994141,0.91992 1.272788,1.18489 2.584073,3.56164 4.18164,6.61914 3.195135,6.115 7.8314,14.76773 19.091797,21.33008 a 2.1900451,2.1900451 0 0 0 2.994141,-0.78906 2.1900451,2.1900451 0 0 0 -0.789063,-2.9961 C 77.773246,61.40892 73.828362,53.92222 70.645967,47.8316 c -1.591198,-3.04531 -2.917246,-5.78718 -5.078125,-7.79883 -1.62066,-1.50873 -3.828761,-2.37246 -6.38086,-2.32421 z m 0.238282,9.10546 a 2.1900451,2.1900451 0 0 0 -0.808594,0.14454 2.1900451,2.1900451 0 0 0 -1.265625,2.82617 c 7.081151,18.55468 22.253906,27.67773 22.253906,27.67773 a 2.1900451,2.1900451 0 0 0 3.00586,-0.74219 2.1900451,2.1900451 0 0 0 -0.744141,-3.00781 c 0,0 -13.913979,-8.43058 -20.423828,-25.48828 a 2.1900451,2.1900451 0 0 0 -2.017578,-1.41016 z"
       inkscape:label="fingerprint" />
    <path
       id="path2287"
       style="opacity:0.9;fill:#ffffff;stroke:none;stroke-width:1px;stroke-linecap:butt;stroke-linejoin:miter;stroke-opacity:1"
       d="M 108,25.436071 C 67.459308,36.185586 36.228027,85.456576 36.228027,85.456576 l 48.851074,22.011234 c 0,0 8.99445,-19.124743 22.920899,-26.058596 z"
       sodipodi:nodetypes="ccccc"
       inkscape:label="clean_mark" />
    <g
       id="g2362"
       inkscape:label="sponge"
       transform="translate(0,-175.16061)"
       inkscape:groupmode="layer">
      <path
         id="rect2295"
         style="display:inline;opacity:1;fill:url(#linearGradient2338);fill-opacity:1;stroke:none;stroke-width:1.00157;stroke-linecap:round;stroke-linejoin:round;stop-color:#000000"
         d="m 30.110528,264.43124 59.778251,1.01038 c 0,0 -0.0095,2.49958 1.7e-4,6.67748 0.0046,1.968 -0.449237,3.97042 -1.455724,5.83052 l -7.614306,14.07205 c -3.163743,5.84693 -10.417826,8.00705 -16.264758,4.8433 -4.673361,-2.52873 -7.495106,-8.60359 -12.168467,-11.13232 -4.708003,-2.54747 -11.267613,-1.54881 -15.975618,-4.09629 -4.023357,-2.17702 -6.301001,-6.29082 -6.299548,-10.55018 6.59e-4,-1.93055 0,-6.65494 0,-6.65494 z"
         sodipodi:nodetypes="ccsssssssc"
         inkscape:label="sponge_shadow" />
      <path
         id="path2300"
         style="display:inline;opacity:1;fill:#f5c211;stroke:none;stroke-width:1.00157;stroke-linecap:round;stroke-linejoin:round;stop-color:#000000"
         d="m 31.566775,258.71099 7.614306,-14.07205 c 3.163743,-5.84693 10.417826,-8.00705 16.264758,-4.8433 4.753238,2.57195 7.415231,8.56037 12.168467,11.13232 4.628127,2.50425 11.34749,1.59203 15.975618,4.09629 5.846933,3.16375 8.007046,10.41783 4.843301,16.26476 l -7.614306,14.07205 c -3.163743,5.84693 -10.417826,8.00705 -16.264758,4.8433 -4.673361,-2.52873 -7.495106,-8.60359 -12.168467,-11.13232 -4.708003,-2.54747 -11.267613,-1.54881 -15.975618,-4.09629 -5.846933,-3.16375 -8.007046,-10.41783 -4.843301,-16.26476 z"
         sodipodi:nodetypes="sssssssssss"
         inkscape:label="sponge_body" />
      <ellipse
         style="opacity:1;fill:#e5a50a;stroke:none;stroke-width:1.00157;stroke-linecap:round;stroke-linejoin:round;stop-color:#000000"
         id="path2308"
         cx="46.192505"
         cy="254.19019"
         rx="2.8077393"
         ry="1.6625977"
         inkscape:label="hole1" />
      <ellipse
         style="opacity:1;fill:#e5a50a;stroke:none;stroke-width:1.00157;stroke-linecap:round;stroke-linejoin:round;stop-color:#000000"
         id="path2310"
         cx="60.898315"
         cy="252.54944"
         rx="3.4512939"
         ry="1.8321533"
         inkscape:label="hole2" />
      <ellipse
         style="opacity:1;fill:#e5a50a;stroke:none;stroke-width:1.00157;stroke-linecap:round;stroke-linejoin:round;stop-color:#000000"
         id="path2312"
         cx="53.262329"
         cy="266.27197"
         rx="3.8807373"
         ry="2.1987305"
         inkscape:label="hole3" />
      <ellipse
         style="opacity:1;fill:#e5a50a;stroke:none;stroke-width:1.00157;stroke-linecap:round;stroke-linejoin:round;stop-color:#000000"
         id="path2314"
         cx="70.400635"
         cy="262.47351"
         rx="3.8798828"
         ry="2.0880127"
         inkscape:label="hole4" />
      <ellipse
         style="opacity:1;fill:#e5a50a;stroke:none;stroke-width:1.00157;stroke-linecap:round;stroke-linejoin:round;stop-color:#000000"
         id="path2316"
         cx="38.141357"
         cy="263.94043"
         rx="2.8796387"
         ry="1.7802734"
         inkscape:label="hole5" />
      <ellipse
         style="opacity:1;fill:#e5a50a;stroke:none;stroke-width:1.00157;stroke-linecap:round;stroke-linejoin:round;stop-color:#000000"
         id="path2318"
         cx="50.124634"
         cy="247.27551"
         rx="3.0289307"
         ry="1.8155518"
         inkscape:label="hole6" />
      <ellipse
         style="opacity:1;fill:#e5a50a;stroke:none;stroke-width:1.00157;stroke-linecap:round;stroke-linejoin:round;stop-color:#000000"
         id="path2320"
         cx="68.111084"
         cy="277.74011"
         rx="4.088623"
         ry="2.7142334"
         inkscape:label="hole7" />
      <ellipse
         style="opacity:1;fill:#e5a50a;stroke:none;stroke-width:1.00157;stroke-linecap:round;stroke-linejoin:round;stop-color:#000000"
         id="path2322"
         cx="63.00354"
         cy="268.75708"
         rx="2.2537842"
         ry="1.501709"
         inkscape:label="hole8" />
      <ellipse
         style="opacity:1;fill:#e5a50a;stroke:none;stroke-width:1.00157;stroke-linecap:round;stroke-linejoin:round;stop-color:#000000"
         id="path2324"
         cx="81.754395"
         cy="268.92493"
         rx="2.9433594"
         ry="1.7139893"
         inkscape:label="hole9" />
      <ellipse
         style="opacity:1;fill:#e5a50a;stroke:none;stroke-width:1.00157;stroke-linecap:round;stroke-linejoin:round;stop-color:#000000"
         id="path2326"
         cx="46.989014"
         cy="274.44092"
         rx="2.6921387"
         ry="1.3901367"
         inkscape:label="hole10" />
      <ellipse
         style="opacity:1;fill:#e5a50a;stroke:none;stroke-width:1.00157;stroke-linecap:round;stroke-linejoin:round;stop-color:#000000"
         id="path2328"
         cx="81.549683"
         cy="256.48376"
         rx="2.1148682"
         ry="1.1141357"
         inkscape:label="hole11" />
      <ellipse
         style="opacity:1;fill:#e5a50a;stroke:none;stroke-width:1.00157;stroke-linecap:round;stroke-linejoin:round;stop-color:#000000"
         id="path2330"
         cx="67.092163"
         cy="288.53455"
         rx="2.9249268"
         ry="1.3863525"
         inkscape:label="hole12" />
    </g>
  </g>
</svg>
