<?xml version="1.0" encoding="UTF-8"?>
<svg width="64" height="64" version="1.1" viewBox="0 0 64 64" xmlns="http://www.w3.org/2000/svg"><path d="m28.994 1.8086c-4.0874 0.0079661-8.7214 1.0203-13.986 3.293-6.2393 2.6932-10.333 6.7641-12.582 11.459-2.2493 4.6948-2.683 9.9133-2.1016 14.988 1.1628 10.15 6.2623 19.861 10.48 25.189a2.19 2.19 0 0 0 3.0762 0.35742 2.19 2.19 0 0 0 0.35742-3.0762c-3.6431-4.6022-8.5335-13.987-9.5625-22.969-0.51451-4.4911-0.096284-8.85 1.6992-12.598s4.9388-6.9869 10.367-9.3301c7.3884-3.1892 12.804-3.4915 17.072-2.3145 4.2683 1.1771 7.567 3.9066 10.48 7.3945 2.9134 3.4879 5.3601 7.6893 7.8594 11.496 2.4993 3.8068 5.019 7.3185 8.6641 9.1406a2.19 2.19 0 0 0 2.9395-0.98047 2.19 2.19 0 0 0-0.98047-2.9375c-2.2477-1.1236-4.5607-3.9692-6.9609-7.625-2.4002-3.6558-4.9187-8.0217-8.1602-11.902-3.2414-3.8806-7.2872-7.3221-12.678-8.8086-1.3476-0.37164-2.7674-0.61631-4.2656-0.7207-0.56184-0.039147-1.1348-0.057779-1.7188-0.056641zm-0.17578 8.4219c-3.3404-0.06194-7.1396 0.92205-11.438 3.1367-7.3961 3.8111-10.308 11.914-8.582 20.889 1.7264 8.975 7.7204 19.139 17.906 28.811a2.19 2.19 0 0 0 3.0957-0.08008 2.19 2.19 0 0 0-0.08008-3.0977c-9.6897-9.2002-15.139-18.754-16.621-26.461-1.4825-7.7072 0.62835-13.25 6.2871-16.166 5.8739-3.0268 9.7153-3.1776 12.732-2.0137 3.0171 1.1639 5.5275 3.9236 7.959 7.6094 4.863 7.3716 8.9731 18.216 18.537 22.723a2.19 2.19 0 0 0 2.916-1.0469 2.19 2.19 0 0 0-1.0488-2.9141c-7.4414-3.5064-11.491-13.205-16.748-21.174-2.6284-3.9843-5.6654-7.5959-10.039-9.2832-1.0934-0.42182-2.2498-0.70577-3.4727-0.8418-0.45856-0.05101-0.9271-0.08099-1.4043-0.08984zm-1.5918 8.6387c-0.8507 0.01608-1.7401 0.13235-2.6582 0.36133-4.3551 1.0861-7.117 4.1438-7.6641 7.7754s0.61688 7.5865 2.5645 11.713c3.8951 8.2527 11.234 17.284 18.041 23.805a2.19 2.19 0 0 0 3.0977-0.06641 2.19 2.19 0 0 0-0.06641-3.0957c-6.4714-6.1995-13.607-15.088-17.111-22.512-1.752-3.712-2.5179-7.0369-2.1934-9.1914 0.32454-2.1545 1.2354-3.3909 4.3906-4.1777 2.6976-0.67276 3.7214-0.26496 4.9941 0.91992 1.2728 1.1849 2.5841 3.5616 4.1816 6.6191 3.1951 6.115 7.8314 14.768 19.092 21.33a2.19 2.19 0 0 0 2.9941-0.78906 2.19 2.19 0 0 0-0.78906-2.9961c-10.287-5.9949-14.232-13.482-17.414-19.572-1.5912-3.0453-2.9172-5.7872-5.0781-7.7988-1.6207-1.5087-3.8288-2.3725-6.3809-2.3242zm0.23828 9.1055a2.19 2.19 0 0 0-0.80859 0.14453 2.19 2.19 0 0 0-1.2656 2.8262c7.0812 18.555 22.254 27.678 22.254 27.678a2.19 2.19 0 0 0 3.0059-0.74219 2.19 2.19 0 0 0-0.74414-3.0078s-13.914-8.4306-20.424-25.488a2.19 2.19 0 0 0-2.0176-1.4102z" fill="#808080" opacity=".4"/></svg>
