<?xml version="1.0" encoding="UTF-8"?>
<!--
SPDX-FileCopyrightText: 2021 Romain Vigier <contact AT romainvigier.fr>
SPDX-License-Identifier: CC-BY-SA-4.0
-->
<svg width="16" height="16" version="1.1" viewBox="0 0 16 16" xmlns="http://www.w3.org/2000/svg">
 <path d="m0.67969 7.7695c-0.42911 0.63731-0.67969 1.4052-0.67969 2.2305 0 1.1424 0.48071 2.1731 1.25 2.9023-0.0070477 0.62664-0.2641 1.6188-1.25 3.0977 3-1 4-2 4-2h4c1.6218 0 3.0189-0.96852 3.6465-2.3574-0.0945-0.05317-0.20174-0.11011-0.28516-0.16016-0.33591-0.20155-0.44625-0.29725-0.56055-0.39648-0.43051 1.1255-1.5142 1.9141-2.8008 1.9141h-4c-1.6706 0-3-1.3294-3-3 0-0.46452 0.10671-0.90051 0.29102-1.291-0.23119-0.29282-0.43715-0.60643-0.61133-0.93945z"/>
 <path d="m6 0c-2.77 0-5 2.23-5 5s2.23 5 5 5h5s1 1 4 2c-0.85673-1.2851-1.1623-2.2023-1.2324-2.832 1.3468-0.894 2.2324-2.4235 2.2324-4.168 0-2.77-2.23-5-5-5z"/>
</svg>
