<?xml version="1.0" encoding="UTF-8"?>
<!--
SPDX-FileCopyrightText: GitLab

SPDX-License-Identifier: CC-BY-NC-SA-4.0
-->
<svg width="16" height="16" version="1.1" viewBox="0 0 16 16" xmlns="http://www.w3.org/2000/svg">
 <path d="m15.953 8.8902-0.85196-2.6238c3.75e-4 0.00117 5.25e-4 0.0024 9e-4 0.00359-4.25e-4 -0.00137-6.5e-4 -0.00274-1e-3 -0.00411-4.7e-5 -9.45e-5 -4.7e-5 -1.417e-4 -4.7e-5 -2.362e-4v-9.43e-5l-1.6913-5.207c-0.09252-0.2743-0.34708-0.45838-0.63893-0.45613-0.2927 0.0015-0.54028 0.18206-0.6308 0.46013l-1.6054 4.9423h-5.0655l-1.6084-4.9428c-0.090441-0.27783-0.33808-0.45833-0.63073-0.45985h-0.00355c-0.28818 0-0.54325 0.18296-0.63675 0.46033l-1.6866 5.2023-2.35e-4 6.5e-4v1.418e-4c-5e-4 0.00132-5e-4 0.00264-1e-3 0.00396 5.0001e-4 -0.00117 5.0001e-4 -0.0024 1e-3 -0.00359l-0.85508 2.624c-0.12863 0.39613 0.01095 0.8266 0.3474 1.0714l7.3833 5.3645c0.00108 8e-4 0.00232 0.0013 0.0034 0.0021 0.00316 0.0023 0.00623 0.0046 0.00944 0.0067-0.00302-2e-3 -0.00585-0.0042-0.00883-0.0063 0 0 0-4.7e-5 -4.72e-5 -4.7e-5 4.75e-4 3.75e-4 0.00105 6.25e-4 0.00155 9.5e-4 4.25e-4 2.75e-4 8.5e-4 4.75e-4 0.00128 7.5e-4 4.73e-5 4.7e-5 9.45e-5 9.4e-5 1.89e-4 1.41e-4 0.011423 0.0079 0.02327 0.0152 0.035543 0.02186 0.0017 9.5e-4 0.00321 0.0021 0.00491 3e-3 4.72e-5 0 4.72e-5 4.7e-5 9.45e-5 4.7e-5 0.00105 5.25e-4 0.00197 0.0012 0.00302 0.0017 8e-4 3.75e-4 0.00165 6.25e-4 0.0024 1e-3 5.75e-4 2.75e-4 0.00117 4.75e-4 0.00175 7e-4 0.00138 6.5e-4 0.00288 0.0011 0.00425 0.0018 0.00642 0.0031 0.01317 0.0056 0.019778 0.0083 0.00618 0.0025 0.012178 0.0055 0.018503 0.0077 2.75e-4 9.4e-5 5.25e-4 2.36e-4 8e-4 3.25e-4 0.00105 3.75e-4 0.00197 9e-4 0.00307 0.0013 0.00133 4.75e-4 0.0026 1e-3 0.00392 0.0014 5.25e-4 1.42e-4 0.00105 2.36e-4 0.00155 3.75e-4 0.00165 5.25e-4 0.00345 7.5e-4 0.0051 0.0012 6.25e-4 1.89e-4 0.00132 2.75e-4 0.00197 4.75e-4 0.00888 0.0027 0.018078 0.0046 0.027235 0.0067 0.00359 8e-4 0.00703 0.0019 0.010668 0.0026 5.25e-4 9.5e-5 1e-3 2.75e-4 0.00155 3.75e-4 0.00117 2.36e-4 0.00228 6.5e-4 0.00349 8.5e-4 0.00192 3.25e-4 0.00382 9.5e-4 0.00581 0.0012 0.00155 2.36e-4 0.00316 1.42e-4 0.00472 3.75e-4 2.75e-4 4.7e-5 5.25e-4 0 8e-4 4.7e-5h2.36e-4c0.017418 0.0025 0.03507 0.0042 0.053055 0.0042h6.083e-4c0.01803 0 0.035685-0.0018 0.05315-0.0042h1.89e-4c2.75e-4 -4.7e-5 5.75e-4 0 8.5e-4 -4.7e-5 0.00155-2.36e-4 0.00321-1.42e-4 0.00477-3.75e-4 0.00197-3.25e-4 0.00387-9e-4 0.00585-0.0012 0.00117-1.89e-4 0.00228-6.25e-4 0.00345-8.5e-4 5.25e-4 -9.4e-5 1e-3 -2.75e-4 0.0015-3.75e-4 0.00368-7e-4 0.00722-0.0019 0.010905-0.0026 0.00902-2e-3 0.018078-0.0039 0.026905-0.0066 6.25e-4 -1.89e-4 0.00122-2.36e-4 0.00185-4.25e-4 0.00175-5.25e-4 0.00354-7.5e-4 0.00529-0.0013 5.25e-4 -1.89e-4 0.00108-2.36e-4 0.0016-3.75e-4 0.00138-4.25e-4 0.00269-1e-3 0.00401-0.0015 0.00105-3.75e-4 0.00197-9e-4 0.00302-0.0013 2.75e-4 -9.5e-5 5.25e-4 -2.36e-4 8e-4 -3.25e-4 0.0067-0.0023 0.013028-0.0055 0.01959-0.0082 0.00609-0.0025 0.01232-0.0048 0.018268-0.0076 0.00148-7e-4 0.00302-0.0011 0.00444-0.0019 5.75e-4 -2.75e-4 0.00122-4.75e-4 0.0018-7.5e-4 8e-4 -3.75e-4 0.00165-6.25e-4 0.00245-1e-3 0.00108-5.75e-4 0.00213-0.0012 0.00316-0.0018 0 0 4.72e-5 0 4.72e-5 -4.7e-5 0.00175-9e-4 0.0033-0.0022 0.00505-0.0031 0.012178-0.0066 0.02398-0.01383 0.035355-0.02171 9e-4 -6.25e-4 0.00192-0.0011 0.00288-0.0018 2.36e-4 -1.88e-4 5.25e-4 -2.75e-4 7.5e-4 -4.75e-4 0.00108-8e-4 0.00235-0.0013 0.00344-0.0021l7.3843-5.3645c0.33628-0.2446 0.47585-0.6751 0.34723-1.0712zm-3.1778-7.3438 1.4482 4.4585h-2.8963zm1.1946 5.2125-0.59093 0.75718-4.3585 5.5843 2.0617-6.3415zm-6.3285 8.3788c3.75e-4 0.0011 1e-3 0.0022 0.00138 0.0033-3.75e-4 -0.0012-1e-3 -0.0022-0.00138-0.0033zm-0.6612-2.0367-4.9465-6.342h2.8878zm-3.7548-11.555 1.4509 4.4585h-2.8963zm-2.3871 7.8056c-0.071558-0.05207-0.1012-0.14397-0.073778-0.22837l0.63563-1.9506 4.6575 5.9713zm6.927 5.9643c-0.00148-0.0012-0.00288-0.0024-0.00429-0.0037-2.75e-4 -2.36e-4 -5.75e-4 -5.75e-4 -9e-4 -8e-4 -0.00283-0.0023-0.00562-0.0048-0.00836-0.0072-0.00538-0.0047-0.010668-0.0094-0.015718-0.01444 4.25e-4 3.75e-4 9e-4 7e-4 0.00133 0.0011 5.75e-4 5.25e-4 0.00118 9.5e-4 0.00175 0.0015 0.01081 0.01034 0.022185 0.02006 0.03408 0.02903 1.417e-4 9.4e-5 2.362e-4 2.36e-4 3.75e-4 3.25e-4 5.75e-4 4.25e-4 0.00105 9.5e-4 0.0016 0.0014-0.00326-0.0023-0.00665-0.0046-0.00987-0.0072zm0.23483-1.5151-1.2115-3.7318-1.0746-3.3103h4.5755zm0.24796 1.5034c-0.00283 0.0024-0.00557 0.0049-0.00845 0.0073-3.25e-4 2.75e-4 -6.5e-4 6.25e-4 -1e-3 9e-4 -0.00148 0.0012-0.00283 0.0024-0.00425 0.0036-0.00312 0.0025-0.00652 0.0048-0.00977 0.0072 5.75e-4 -4.25e-4 0.00105-1e-3 0.00165-0.0014l2.75e-4 -2.75e-4c0.011895-9e-3 0.023223-0.0186 0.033938-0.02894 4.25e-4 -4.25e-4 9.5e-4 -7.5e-4 0.00137-0.0011 5.751e-4 -5.25e-4 0.00118-9.5e-4 0.0017-0.0015-5e-3 0.0049-0.010243 0.0096-0.015483 0.01421zm6.9145-5.9528-5.2185 3.7913 4.659-5.9695 0.63308 1.9498c0.02747 0.08478-0.0021 0.17668-0.07354 0.2286z"/>
</svg>
