<?xml version="1.0" encoding="UTF-8"?>
<!--
SPDX-FileCopyrightText: 2021 Romain Vigier <contact AT romainvigier.fr>
SPDX-License-Identifier: CC-BY-SA-4.0
-->
<svg width="128" height="128" version="1.1" viewBox="0 0 128 128" xmlns="http://www.w3.org/2000/svg">
 <defs>
  <linearGradient id="sponge_shading" x1="30.111" x2="89.889" y1="281.38" y2="281.38" gradientTransform="matrix(1.1423 0 0 1.1423 -25.658 -12.687)" gradientUnits="userSpaceOnUse">
   <stop stop-color="#b5835a" offset="0"/>
   <stop stop-color="#e5a50a" offset=".097354"/>
   <stop stop-color="#e5a50a" offset=".28912"/>
   <stop stop-color="#b5835a" offset=".45415"/>
   <stop stop-color="#e5a50a" offset=".66135"/>
   <stop stop-color="#e5a50a" offset="1"/>
  </linearGradient>
 </defs>
 <g id="illustration">
  <path id="background" d="m115.39 51.388a51.388 51.388 0 0 1-51.388 51.388 51.388 51.388 0 0 1-51.388-51.388 51.388 51.388 0 0 1 51.388-51.388 51.388 51.388 0 0 1 51.388 51.388z" fill="#813d9c"/>
  <g id="fingerprint" fill="#fff">
   <path d="m58.324 46.703a2.16 2.16 0 0 0-1.248 2.7871c7.6206 19.968 23.904 29.709 23.904 29.709a2.16 2.16 0 0 0 2.9648-0.74219 2.16 2.16 0 0 0-0.74219-2.9629s-15.032-9.0494-22.09-27.543a2.16 2.16 0 0 0-2.7891-1.248z"/>
   <path d="m58.881 36.725c-0.90488 0.01652-1.852 0.14182-2.834 0.38672-4.657 1.1614-7.589 4.3956-8.2461 8.2891-0.65712 3.8935 0.50659 8.2172 2.5957 12.705 4.1782 8.9757 12.323 18.719 20.676 25.354a2.16 2.16 0 0 0 3.0352-0.34766 2.16 2.16 0 0 0-0.34766-3.0352c-7.7945-6.1914-15.683-15.707-19.447-23.793-1.8821-4.0432-2.6674-7.7023-2.252-10.164 0.41548-2.4618 1.5767-3.9549 5.0312-4.8164 2.9519-0.73618 4.1825-0.26797 5.6328 1.0781 1.4503 1.3461 2.9037 3.9624 4.666 7.291 3.5247 6.6572 8.5685 15.995 20.686 23.057a2.16 2.16 0 0 0 2.9531-0.7793 2.16 2.16 0 0 0-0.77734-2.9531c-11.155-6.5005-15.528-14.708-19.043-21.346-1.7572-3.319-3.2301-6.287-5.5449-8.4355-1.7361-1.6114-4.0686-2.5398-6.7832-2.4902z"/>
   <path d="m62.078 27.49c-3.9132-0.43598-8.4688 0.55012-13.75 3.2715-7.9067 4.0743-11.039 12.711-9.2129 22.361 1.8262 9.6499 8.2505 20.618 19.23 31.043a2.16 2.16 0 0 0 3.0527-0.08008 2.16 2.16 0 0 0-0.07813-3.0527c-10.487-9.9563-16.372-20.315-17.961-28.713-1.5892-8.3978 0.75472-14.528 6.9473-17.719 6.3755-3.2853 10.596-3.4632 13.918-2.1816s6.06 4.3002 8.6953 8.2949c5.2707 7.9894 9.7074 19.648 19.938 24.469a2.16 2.16 0 0 0 2.875-1.0332 2.16 2.16 0 0 0-1.0332-2.873c-8.1367-3.8344-12.515-14.363-18.174-22.941-2.8296-4.2892-6.086-8.1495-10.746-9.9473-1.165-0.44944-2.3968-0.75311-3.7012-0.89844z"/>
   <path d="m62.51 18.072c-4.8485-0.32984-10.422 0.7898-16.82 3.7969-12.238 5.7521-16.458 16.415-15.9 27.023 0.55733 10.608 5.4417 21.351 10.936 28.977a2.16 2.16 0 0 0 3.0137 0.49023 2.16 2.16 0 0 0 0.49024-3.0156c-5.0654-7.0306-9.6305-17.265-10.125-26.678-0.49451-9.4126 2.6325-17.815 13.424-22.887 7.8764-3.7019 13.726-4.091 18.408-2.7559 4.6822 1.3352 8.3826 4.4934 11.623 8.5234 3.2404 4.03 5.9472 8.8794 8.6074 13.262 2.6603 4.3823 5.1987 8.3679 8.8047 10.578a2.16 2.16 0 0 0 2.9707-0.71289 2.16 2.16 0 0 0-0.71289-2.9707c-2.2829-1.3992-4.7749-4.86-7.3711-9.1367s-5.3733-9.3011-8.9316-13.727c-3.5583-4.4254-7.9712-8.3072-13.805-9.9707-1.4584-0.41587-2.9952-0.68693-4.6113-0.79688z"/>
  </g>
  <path id="clean_trace" d="m111.11 30.882c-57.389 6.3827-80.301 35.212-88.596 50.719a51.388 51.388 0 0 0 15.153 13.865l33.515 6.7769a51.388 51.388 0 0 0 44.204-50.855 51.388 51.388 0 0 0-4.2761-20.506z" fill="#fff" opacity=".7"/>
  <g id="sponge">
   <path d="m8.7367 89.288 68.284 1.1542s-0.01083 2.8553 1.15e-4 7.6277c0.0052 2.248-0.51312 4.535-1.6628 6.6597l-8.6978 16.074c-3.6139 6.679-11.9 9.1464-18.58 5.5322-5.3384-2.8877-8.5617-9.8272-13.9-12.716-5.378-2.9094-12.871-1.7694-18.249-4.6789-4.5959-2.4868-7.1976-7.1862-7.196-12.051 7.997e-4 -2.2053 0-7.602 0-7.602z" fill="url(#sponge_shading)"/>
   <path d="m10.401 82.752 8.6978-16.074c3.6139-6.6789 11.9-9.1464 18.58-5.5325 5.4297 2.938 8.4705 9.7786 13.9 12.716 5.2867 2.8607 12.963 1.8187 18.249 4.6792 6.679 3.614 9.1465 11.9 5.5325 18.58l-8.6978 16.074c-3.6139 6.679-11.9 9.1464-18.58 5.5333-5.3384-2.8889-8.5617-9.8284-13.9-12.717-5.378-2.9094-12.871-1.7683-18.249-4.6788-6.679-3.6139-9.1465-11.9-5.5325-18.58z" fill="#f5c211"/>
  </g>
 </g>
</svg>
