<?xml version="1.0" encoding="UTF-8"?>
<!--
SPDX-FileCopyrightText: Liberapay

SPDX-License-Identifier: CC0-1.0
-->
<svg width="16" height="16" version="1.1" viewBox="0 0 16 16" xmlns="http://www.w3.org/2000/svg">
 <path d="m6.6711-2.5e-7 -2.5805 0.39962-2.114 8.8395c-0.1225 0.52177-0.18588 1.0131-0.1914 1.4734-0.0057 0.46065 0.088567 0.86872 0.2828 1.2239 0.19423 0.35535 0.51605 0.63537 0.96565 0.84062 0.4496 0.20528 1.0681 0.3078 1.8562 0.3078v-8.5e-4l0.49962-2.0476c-0.2887-0.02207-0.51375-0.07211-0.67465-0.15001-0.1609-0.07747-0.27432-0.18-0.341-0.3078-0.066657-0.12758-0.097557-0.27458-0.091827-0.441 0.0055-0.16642 0.03043-0.3499 0.075007-0.54965zm3.9807 3.9642c-0.6659 0-1.2849 0.052498-1.8562 0.15777-0.57167 0.10573-1.0799 0.22514-1.5234 0.35825l-2.7632 11.52h2.4637l0.74925-3.013c0.3772 0.06666 0.75462 0.10002 1.1321 0.10002 0.7767 0 1.4954-0.13653 2.1559-0.40825 0.66017-0.27192 1.2258-0.65177 1.6976-1.1403 0.47035-0.48822 0.83977-1.0678 1.1062-1.7394 0.26642-0.67097 0.39962-1.4124 0.39962-2.2227l0.0017 4.499e-4c0-0.49947-0.0694-0.96765-0.20778-1.4062-0.13906-0.43835-0.35255-0.82132-0.64102-1.1489-0.28958-0.32732-0.6583-0.58552-1.1079-0.77425-0.4494-0.18849-0.98492-0.2828-1.6062-0.2828zm-0.31555 2.0804c0.52155 0 0.88785 0.16679 1.0989 0.49962 0.21056 0.33285 0.316 0.73827 0.316 1.2153 0 0.48845-0.06918 0.93482-0.20778 1.3399-0.13906 0.40545-0.3332 0.75217-0.58282 1.0407-0.24985 0.2887-0.55232 0.51355-0.90745 0.67422-0.35515 0.16112-0.74922 0.24141-1.1821 0.24141-0.27745 0-0.5103-0.0218-0.6988-0.06639l1.1653-4.8445c0.31055-0.066657 0.64347-0.10002 0.99885-0.10002z"/>
</svg>
