<?xml version="1.0" encoding="UTF-8"?>
<!--
SPDX-FileCopyrightText: Matrix.org Foundation

SPDX-License-Identifier: Apache-2.0
-->
<svg width="16" height="16" version="1.1" viewBox="0 0 16 16" xmlns="http://www.w3.org/2000/svg">
 <path d="m0.093752 0.045385a0.093775 0.093775 0 0 0-0.093752 0.093752v15.789a0.093775 0.093775 0 0 0 0.093752 0.09375h1.5a0.093775 0.093775 0 0 0 0.093752-0.09375v-0.36135a0.093775 0.093775 0 0 0-0.093752-0.093752h-0.99025v-14.879h0.99025a0.093775 0.093775 0 0 0 0.093752-0.093752v-0.36135a0.093775 0.093775 0 0 0-0.093752-0.093752zm14.312 0a0.093775 0.093775 0 0 0-0.09375 0.093752v0.36135a0.093775 0.093775 0 0 0 0.09375 0.093752h0.99025v14.879h-0.99025a0.093775 0.093775 0 0 0-0.09375 0.09375v0.36135a0.093775 0.093775 0 0 0 0.09375 0.09375h1.5a0.093775 0.093775 0 0 0 0.093752-0.093748v-15.789a0.093775 0.093775 0 0 0-0.093752-0.093752zm-7.5177 4.9845c-0.3838 0-0.72955 0.084152-1.0312 0.25195-0.2417 0.13449-0.43332 0.34455-0.6172 0.56642v-0.5723a0.093775 0.093775 0 0 0-0.093752-0.093752h-1.4609a0.093775 0.093775 0 0 0-0.093752 0.093752v5.633a0.093775 0.093775 0 0 0 0.093752 0.09375h1.5469a0.093775 0.093775 0 0 0 0.093752-0.09375v-3.2677c0-0.26685 0.03964-0.47767 0.11133-0.63087 0.075432-0.16101 0.16292-0.2797 0.26172-0.3594 0.1041-0.083892 0.20872-0.13911 0.31445-0.16797 0.11506-0.03143 0.20507-0.044922 0.26367-0.044922 0.2362 0 0.40585 0.04134 0.50977 0.10938 0.11237 0.074002 0.18861 0.16838 0.23634 0.28907 0.050432 0.12776 0.079342 0.26785 0.085942 0.4219 0.0068 0.16218 0.01172 0.32475 0.01172 0.49025v3.1602a0.093775 0.093775 0 0 0 0.093752 0.09375h1.5469a0.093775 0.093775 0 0 0 0.093752-0.09375v-3.1367c0-0.16974 0.01222-0.33807 0.03711-0.50392 0.02387-0.16073 0.070572-0.30212 0.14063-0.4258 0.068652-0.12091 0.16312-0.2171 0.28517-0.29297 0.11518-0.071342 0.27277-0.11133 0.47852-0.11133 0.20733 0 0.3635 0.03472 0.47072 0.095702 0.11308 0.064742 0.19476 0.14995 0.25195 0.25782 0.05853 0.11067 0.09555 0.24348 0.10938 0.4004 0.01451 0.16389 0.02149 0.33902 0.02149 0.5254v3.1915a0.093775 0.093775 0 0 0 0.09375 0.09375h1.5469a0.093775 0.093775 0 0 0 0.09375-0.09375v-3.7695c0-0.37195-0.05114-0.69292-0.1582-0.96487-0.10642-0.2691-0.25757-0.49147-0.45119-0.66212-0.19257-0.16939-0.42367-0.29317-0.68947-0.36915-0.26365-0.075242-0.54815-0.11328-0.85355-0.11328-0.4073 0-0.7672 0.099362-1.0703 0.29885-0.26237 0.1726-0.45965 0.3807-0.62697 0.60355-0.15753-0.30067-0.35215-0.55472-0.63087-0.68557-0.30717-0.14393-0.64775-0.21681-1.0156-0.21681z"/>
</svg>
