<?xml version="1.0" encoding="UTF-8"?>
<svg width="16" height="16" version="1.1" viewBox="0 0 16 16" xmlns="http://www.w3.org/2000/svg"><path d="m7.2373 0.25509c-1.0235 0.0021-2.1838 0.25598-3.5022 0.82505-1.5623 0.67438-2.5868 1.6937-3.15 2.8693-0.56322 1.1756-0.6723 2.4818-0.52672 3.7526 0.29117 2.5416 1.5686 4.9731 2.6248 6.3074a0.54839 0.54839 0 0 0 0.77027 0.0895 0.54839 0.54839 0 0 0 0.0895-0.77027c-0.91222-1.1524-2.1373-3.5022-2.3949-5.7514-0.12883-1.1246-0.02362-2.2155 0.42597-3.154 0.44959-0.93842 1.2367-1.7495 2.5959-2.3362 1.85-0.79857 3.2061-0.87476 4.2749-0.58003s1.8948 0.97821 2.6243 1.8516c0.72952 0.87338 1.3422 1.9259 1.968 2.8791 0.62583 0.95321 1.2568 1.8321 2.1695 2.2883a0.54839 0.54839 0 0 0 0.73555-0.24551 0.54839 0.54839 0 0 0-0.24502-0.73555c-0.56282-0.28134-1.142-0.99388-1.743-1.9093-0.60101-0.91541-1.2316-2.0086-2.0433-2.9803-0.81166-0.9717-1.8247-1.8329-3.1745-2.2052-0.33744-0.09306-0.69344-0.15481-1.0686-0.18095-0.14068-0.0098-0.28416-0.01448-0.43037-0.01418zm-0.04402 2.1088c-0.83634-0.01551-1.7872 0.23088-2.8635 0.78543-1.852 0.95429-2.5812 2.9832-2.1489 5.2305 0.43229 2.2473 1.9327 4.7925 4.4832 7.2141a0.54839 0.54839 0 0 0 0.77565-0.02005 0.54839 0.54839 0 0 0-0.02054-0.77516c-2.4263-2.3037-3.7902-4.6964-4.1614-6.6263-0.37123-1.9299 0.15734-3.3178 1.5743-4.048 1.4708-0.7579 2.4322-0.79518 3.1877-0.50373 0.75548 0.29145 1.3846 0.98197 1.9934 1.9049 1.2177 1.8458 2.2468 4.5618 4.6417 5.6902a0.54839 0.54839 0 0 0 0.72968-0.26263 0.54839 0.54839 0 0 0-0.26214-0.72968c-1.8633-0.87801-2.8774-3.3066-4.1937-5.3019-0.65816-0.99768-1.4186-1.902-2.5138-2.3245-0.27379-0.10562-0.56385-0.17672-0.87004-0.21078-0.11482-0.01277-0.23216-0.02028-0.35164-0.0225zm-0.39858 2.1631c-0.21301 4e-3 -0.43571 0.03314-0.66561 0.09048-1.0905 0.27196-1.7816 1.0376-1.9186 1.947-0.13698 0.90935 0.15447 1.8997 0.64214 2.9329 0.97534 2.0665 2.8129 4.3278 4.5175 5.9607a0.54839 0.54839 0 0 0 0.77516-0.01663 0.54839 0.54839 0 0 0-0.01663-0.77516c-1.6204-1.5523-3.4068-3.778-4.2842-5.6369-0.4387-0.92948-0.63097-1.7616-0.5497-2.301 0.08127-0.53948 0.30984-0.84956 1.0999-1.0466 0.67547-0.16846 0.93182-0.06635 1.2505 0.23035 0.3187 0.29669 0.64705 0.89183 1.0471 1.6574 0.80006 1.5312 1.9605 3.6978 4.7801 5.341a0.54839 0.54839 0 0 0 0.75022-0.19758 0.54839 0.54839 0 0 0-0.19758-0.75022c-2.5758-1.5011-3.5636-3.3758-4.3605-4.9009-0.39844-0.76254-0.73097-1.4491-1.272-1.9528-0.40581-0.37778-0.95872-0.59406-1.5978-0.58198zm0.06015 2.28a0.54839 0.54839 0 0 0-0.20296 0.03619 0.54839 0.54839 0 0 0-0.31642 0.70767c1.7731 4.6461 5.5719 6.931 5.5719 6.931a0.54839 0.54839 0 0 0 0.75316-0.18633 0.54839 0.54839 0 0 0-0.18633-0.75266s-3.4841-2.1115-5.1141-6.3827a0.54839 0.54839 0 0 0-0.5052-0.3531z"/></svg>
