<?xml version="1.0" encoding="UTF-8"?>
<!--
SPDX-FileCopyrightText: 2012 Michal Čihař <michal@cihar.com>

SPDX-License-Identifier: CC-BY-SA-3.0
-->
<svg width="16" height="16" version="1.1" viewBox="0 0 16 16" xmlns="http://www.w3.org/2000/svg">
 <path d="m8.003 4.4611c-1e-3 -2.4e-5 -0.00202-4.5e-5 -0.00296-6.2e-5 -1e-3 1.7e-5 -0.00203 3.8e-5 -0.00296 6.2e-5 -0.065332-9e-4 -0.1308 0.01063-0.19313 0.03697-0.3536 0.14969-0.57647 0.53354-0.71627 0.91709-0.12137 0.3329-0.17509 0.69042-0.17587 1.0432l-9.5e-4 0.04617c-0.00113 0.01797-0.00255 0.03588-0.00444 0.05373 0.012982 0.89979 0.18226 1.8062 0.53817 2.634 0.39862 0.92709 1.0322 1.78 1.9269 2.1698 0.67489 0.29415 1.423 0.22476 2.0347-0.12168 0.75947-0.43015 1.3074-1.1907 1.666-2.0076 0.74499-1.6976 0.76289-3.7672 0.01949-5.5094 0.72454-0.37535 0.72294-1.1237 0.72294-1.1237s0.67869 0.48637 1.4419 0.181c1.0163 2.3814 0.99174 5.1852-0.07984 7.5307-0.62647 1.3712-1.6437 2.5725-2.975 3.1905-1.1851 0.55027-2.5785 0.56402-3.7645 0.04719-1.0658-0.4646-1.9326-1.3017-2.5562-2.2749-0.90322-1.4096-1.3309-3.1257-1.3328-4.817h0.00701c-5.25e-4 -0.01781-7.75e-4 -0.03563-5.75e-4 -0.05347 0.013737-1.5208 0.63692-3.0695 1.8869-3.8645 0.45902-0.2919 0.99542-0.45902 1.5369-0.465 0.0062-4.8e-5 0.012575-7.83e-5 0.018862-8.95e-5 0.00817-6e-6 0.016657 2.6e-5 0.024835 8.95e-5 0.54144 0.00597 1.0779 0.17309 1.5369 0.465 1.2499 0.79484 1.8731 2.3437 1.8869 3.8645 1.88e-4 0.01785-3.2e-5 0.03566-5.75e-4 0.05347h7e-3c-0.0018 1.6072-0.38822 3.237-1.2019 4.6047-0.23337-0.0013-0.46594-0.04868-0.68513-0.14423-0.49382-0.21518-0.92864-0.62157-1.2824-1.1714 0.10088-0.17935 0.1918-0.36507 0.27297-0.55387 0.35592-0.82779 0.5252-1.7343 0.53817-2.634-0.0019-0.01785-0.00338-0.03576-0.00445-0.05373l-9.5e-4 -0.04617c-7.7e-4 -0.3528-0.054502-0.71035-0.17587-1.0432-0.13982-0.38352-0.3627-0.76739-0.71627-0.91709-0.062352-0.026348-0.12784-0.03786-0.19313-0.037068v1.07e-4zm-0.52425 9.1234c-1.1674 0.48025-2.5232 0.45447-3.6805-0.082836-1.3312-0.61807-2.3484-1.8193-2.975-3.1905-1.0716-2.3454-1.0961-5.1492-0.079844-7.5307 0.76319 0.30537 1.4419-0.181 1.4419-0.181s-0.0016 0.74837 0.72294 1.1237c-0.74339 1.7421-0.72549 3.8117 0.01949 5.5094 0.35867 0.81682 0.90654 1.5775 1.666 2.0076 0.27107 0.15352 0.56892 0.25262 0.87532 0.28982 0.00113 0.0017 0.00225 0.0036 0.00338 0.0053 0.54107 0.84444 1.2227 1.5482 2.0061 2.049z"/>
</svg>
