<?xml version="1.0" encoding="UTF-8"?>
<!--
SPDX-FileCopyrightText: 2021 Romain Vigier <contact AT romainvigier.fr>

SPDX-License-Identifier: CC-BY-SA-4.0
-->
<svg width="128" height="128" version="1.0" viewBox="0 0 128 128" xmlns="http://www.w3.org/2000/svg" xmlns:xlink="http://www.w3.org/1999/xlink">
 <title>Metadata Cleaner Icon</title>
 <defs>
  <linearGradient id="linearGradient2338" x1="30.111" x2="89.889" y1="281.38" y2="281.38" gradientUnits="userSpaceOnUse">
   <stop stop-color="#b5835a" offset="0"/>
   <stop stop-color="#e5a50a" offset=".097354"/>
   <stop stop-color="#e5a50a" offset=".28912"/>
   <stop stop-color="#b5835a" offset=".45415"/>
   <stop stop-color="#e5a50a" offset=".66135"/>
   <stop stop-color="#e5a50a" offset="1"/>
  </linearGradient>
 </defs>
 <rect x="20" y="5" width="88" height="112" rx="8" fill="#c0bfbc"/>
 <rect x="20" y="5" width="88" height="108" rx="8" fill="#f6f5f4"/>
 <path d="m60.955 20.648c-4.0874 8e-3 -8.7214 1.0203-13.986 3.293-6.2393 2.6932-10.333 6.7642-12.582 11.459-2.2493 4.6948-2.683 9.9133-2.1016 14.988 1.1628 10.15 6.2623 19.861 10.48 25.189a2.19 2.19 0 0 0 3.0762 0.35742 2.19 2.19 0 0 0 0.35742-3.0762c-3.6431-4.6022-8.5335-13.987-9.5625-22.969-0.51451-4.4911-0.09628-8.85 1.6992-12.598 1.7955-3.7477 4.9388-6.9869 10.367-9.3301 7.3884-3.1892 12.804-3.4915 17.072-2.3144s7.567 3.9066 10.48 7.3945c2.9134 3.4879 5.3601 7.6893 7.8594 11.496 2.4993 3.8068 5.019 7.3185 8.6641 9.1406a2.19 2.19 0 0 0 2.9395-0.98047 2.19 2.19 0 0 0-0.98047-2.9375c-2.2477-1.1236-4.5607-3.9692-6.9609-7.625-2.4002-3.6558-4.9187-8.0217-8.1602-11.902s-7.2872-7.3221-12.678-8.8086c-1.3476-0.37163-2.7674-0.61631-4.2656-0.7207-0.56184-0.0392-1.1348-0.0578-1.7188-0.0566zm-0.17578 8.4219c-3.3404-0.0619-7.1396 0.92205-11.438 3.1367-7.3961 3.8111-10.308 11.914-8.582 20.889 1.7264 8.975 7.7204 19.139 17.906 28.811a2.19 2.19 0 0 0 3.0957-0.0801 2.19 2.19 0 0 0-0.08008-3.0977c-9.6897-9.2002-15.139-18.754-16.621-26.461-1.4825-7.7072 0.62835-13.25 6.2871-16.166 5.8739-3.0268 9.7153-3.1776 12.732-2.0137 3.0171 1.1639 5.5275 3.9236 7.959 7.6094 4.863 7.3716 8.9731 18.216 18.537 22.723a2.19 2.19 0 0 0 2.916-1.0469 2.19 2.19 0 0 0-1.0488-2.9141c-7.4414-3.5064-11.491-13.205-16.748-21.174-2.6284-3.9843-5.6654-7.5959-10.039-9.2832-1.0934-0.42182-2.2498-0.70576-3.4727-0.84179-0.45856-0.051-0.9271-0.081-1.4043-0.0898zm-1.5918 8.6387c-0.8507 0.0161-1.7401 0.13235-2.6582 0.36132-4.3551 1.0861-7.117 4.1438-7.6641 7.7754-0.54705 3.6316 0.61688 7.5866 2.5645 11.713 3.8951 8.2527 11.234 17.284 18.041 23.805a2.19 2.19 0 0 0 3.0977-0.0664 2.19 2.19 0 0 0-0.06641-3.0957c-6.4714-6.1995-13.607-15.088-17.111-22.512-1.752-3.712-2.5179-7.0369-2.1934-9.1914 0.32454-2.1545 1.2354-3.3908 4.3906-4.1777 2.6976-0.67276 3.7214-0.26496 4.9941 0.91992 1.2728 1.1849 2.5841 3.5616 4.1816 6.6191 3.1951 6.115 7.8314 14.768 19.092 21.33a2.19 2.19 0 0 0 2.9941-0.78906 2.19 2.19 0 0 0-0.78906-2.9961c-10.287-5.9949-14.232-13.482-17.414-19.572-1.5912-3.0453-2.9172-5.7872-5.0781-7.7988-1.6207-1.5087-3.8288-2.3725-6.3809-2.3242zm0.23828 9.1055a2.19 2.19 0 0 0-0.80859 0.14454 2.19 2.19 0 0 0-1.2656 2.8262c7.0812 18.555 22.254 27.678 22.254 27.678a2.19 2.19 0 0 0 3.0059-0.74219 2.19 2.19 0 0 0-0.74414-3.0078s-13.914-8.4306-20.424-25.488a2.19 2.19 0 0 0-2.0176-1.4102z" fill="#813d9c"/>
 <path d="m108 25.436c-40.541 10.75-71.772 60.021-71.772 60.021l48.851 22.011s8.9944-19.125 22.921-26.059z" fill="#fff" opacity=".9"/>
 <g transform="translate(0 -175.16)">
  <path d="m30.111 264.43 59.778 1.0104s-0.0095 2.4996 1.7e-4 6.6775c0.0046 1.968-0.44924 3.9704-1.4557 5.8305l-7.6143 14.072c-3.1637 5.8469-10.418 8.007-16.265 4.8433-4.6734-2.5287-7.4951-8.6036-12.168-11.132-4.708-2.5475-11.268-1.5488-15.976-4.0963-4.0234-2.177-6.301-6.2908-6.2995-10.55 6.59e-4 -1.9306 0-6.6549 0-6.6549z" fill="url(#linearGradient2338)"/>
  <path d="m31.567 258.71 7.6143-14.072c3.1637-5.8469 10.418-8.007 16.265-4.8433 4.7532 2.572 7.4152 8.5604 12.168 11.132 4.6281 2.5042 11.347 1.592 15.976 4.0963 5.8469 3.1638 8.007 10.418 4.8433 16.265l-7.6143 14.072c-3.1637 5.8469-10.418 8.007-16.265 4.8433-4.6734-2.5287-7.4951-8.6036-12.168-11.132-4.708-2.5475-11.268-1.5488-15.976-4.0963-5.8469-3.1638-8.007-10.418-4.8433-16.265z" fill="#f5c211"/>
  <g fill="#e5a50a">
   <ellipse cx="46.193" cy="254.19" rx="2.8077" ry="1.6626"/>
   <ellipse cx="60.898" cy="252.55" rx="3.4513" ry="1.8322"/>
   <ellipse cx="53.262" cy="266.27" rx="3.8807" ry="2.1987"/>
   <ellipse cx="70.401" cy="262.47" rx="3.8799" ry="2.088"/>
   <ellipse cx="38.141" cy="263.94" rx="2.8796" ry="1.7803"/>
   <ellipse cx="50.125" cy="247.28" rx="3.0289" ry="1.8156"/>
   <ellipse cx="68.111" cy="277.74" rx="4.0886" ry="2.7142"/>
   <ellipse cx="63.004" cy="268.76" rx="2.2538" ry="1.5017"/>
   <ellipse cx="81.754" cy="268.92" rx="2.9434" ry="1.714"/>
   <ellipse cx="46.989" cy="274.44" rx="2.6921" ry="1.3901"/>
   <ellipse cx="81.55" cy="256.48" rx="2.1149" ry="1.1141"/>
   <ellipse cx="67.092" cy="288.53" rx="2.9249" ry="1.3864"/>
  </g>
 </g>
</svg>
