<?xml version="1.0" encoding="UTF-8"?>
<!--
SPDX-FileCopyrightText: GitLab

SPDX-License-Identifier: CC-BY-NC-SA-4.0
-->
<svg width="64" height="64" version="1.1" viewBox="0 0 64 64" xmlns="http://www.w3.org/2000/svg">
 <path d="m63.81 35.56-3.4078-10.495c0.0015 0.0047 0.0021 0.0096 0.0036 0.01435-0.0017-0.0055-0.0026-0.01095-0.0042-0.01643-1.88e-4 -3.78e-4 -1.88e-4 -5.67e-4 -1.88e-4 -9.45e-4v-3.77e-4l-6.765-20.828c-0.37007-1.0972-1.3883-1.8335-2.5557-1.8245-1.1708 6e-3 -2.1611 0.72824-2.5232 1.8405l-6.4214 19.769h-20.262l-6.4335-19.771c-0.36176-1.1113-1.3523-1.8333-2.5229-1.8394h-0.0142c-1.1527 0-2.173 0.73183-2.547 1.8413l-6.7465 20.809-9.4e-4 0.0026v5.67e-4c-2e-3 0.0053-2e-3 0.01057-4e-3 0.01586 2e-3 -0.0047 2e-3 -0.0096 4e-3 -0.01435l-3.4203 10.496c-0.51451 1.5845 0.0438 3.3064 1.3896 4.2854l29.533 21.458c0.0043 0.0032 0.0093 0.0051 0.01359 0.0083 0.01265 0.0091 0.02492 0.01832 0.03776 0.02681-0.01208-0.0081-0.02341-0.01699-0.03531-0.0253 0 0 0-1.89e-4 -1.89e-4 -1.89e-4 0.0019 0.0015 0.0042 0.0025 0.0062 0.0038 0.0017 0.0011 0.0034 0.0019 0.0051 3e-3 1.89e-4 1.89e-4 3.78e-4 3.78e-4 7.56e-4 5.66e-4 0.04569 0.03172 0.09308 0.0608 0.14217 0.08742 0.0068 0.0038 0.01284 0.0085 0.01964 0.01208 1.89e-4 0 1.89e-4 1.89e-4 3.78e-4 1.89e-4 0.0042 0.0021 0.0079 0.0047 0.01208 0.0068 0.0032 0.0015 0.0066 0.0025 0.0096 4e-3 0.0023 0.0011 0.0047 0.0019 7e-3 0.0028 0.0055 0.0026 0.01152 0.0043 0.01699 0.0072 0.02568 0.01227 0.05268 0.02228 0.07911 0.03304 0.02473 0.0102 0.04871 0.02209 0.07401 0.03096 0.0011 3.78e-4 0.0021 9.44e-4 0.0032 0.0013 0.0042 0.0015 0.0079 0.0036 0.01227 0.0051 0.0053 0.0019 0.01038 4e-3 0.01567 0.0057 0.0021 5.66e-4 0.0042 9.44e-4 0.0062 0.0015 0.0066 0.0021 0.01378 3e-3 0.02039 0.0049 0.0025 7.55e-4 0.0053 0.0011 0.0079 0.0019 0.0355 0.01076 0.07231 0.0185 0.10894 0.02662 0.01435 0.0032 0.02813 0.0077 0.04267 0.01038 0.0021 3.78e-4 4e-3 0.0011 0.0062 0.0015 0.0047 9.44e-4 0.0091 0.0026 0.01397 0.0034 0.0077 0.0013 0.01529 0.0038 0.02322 0.0049 0.0062 9.44e-4 0.01265 5.67e-4 0.01888 0.0015 0.0011 1.89e-4 0.0021 0 0.0032 1.89e-4h9.44e-4c0.06967 0.01001 0.14028 0.01699 0.21222 0.01699h0.0013 3.78e-4 1.89e-4 5.66e-4c0.07212 0 0.14274-7e-3 0.2126-0.01699h7.56e-4c0.0011-1.89e-4 0.0023 0 0.0034-1.89e-4 0.0062-9.44e-4 0.01284-5.67e-4 0.01907-0.0015 0.0079-0.0013 0.01548-0.0036 0.02341-0.0049 0.0047-7.55e-4 0.0091-0.0025 0.01378-0.0034 0.0021-3.78e-4 4e-3 -0.0011 6e-3 -0.0015 0.01473-0.0028 0.02889-0.0074 0.04362-0.01057 0.03606-0.0079 0.07231-0.01567 0.10762-0.02625 0.0025-7.55e-4 0.0049-9.44e-4 0.0074-0.0017 7e-3 -0.0021 0.01416-3e-3 0.02115-0.0051 0.0021-7.55e-4 0.0043-9.44e-4 0.0064-0.0015 0.0055-0.0017 0.01076-4e-3 0.01605-0.0059 0.0042-0.0015 0.0079-0.0036 0.01208-0.0051 0.0011-3.78e-4 0.0021-9.44e-4 0.0032-0.0013 0.02681-0.0094 0.05211-0.0219 0.07836-0.03266 0.02436-0.0102 0.04928-0.01926 0.07307-0.03059 0.0059-0.0028 0.01208-0.0045 0.01775-0.0074 0.0023-0.0011 0.0049-0.0019 0.0072-3e-3 0.0032-0.0015 0.0066-0.0025 0.0098-0.0042 0.0043-0.0023 0.0085-0.0049 0.01265-7e-3 0 0 1.89e-4 0 1.89e-4 -1.89e-4 7e-3 -0.0036 0.01322-0.0087 0.0202-0.01246 0.04871-0.02643 0.09592-0.05532 0.14142-0.08685 0.0036-0.0025 0.0077-0.0043 0.01152-7e-3 9.44e-4 -7.55e-4 0.0021-0.0011 3e-3 -0.0019 0.0043-0.0032 0.0094-0.0053 0.01378-0.0085l29.537-21.458c1.3451-0.97841 1.9034-2.7004 1.3889-4.2848zm-12.711-29.375 5.7927 17.834h-11.585zm4.7782 20.85-2.3637 3.0287-17.434 22.337 8.2466-25.366zm-25.314 33.515c0.0015 0.0045 4e-3 0.0087 0.0055 0.0134-0.0015-0.0047-4e-3 -0.0089-0.0055-0.0134zm-2.6448-8.1469-19.786-25.368h11.551zm-15.019-46.218 5.8034 17.834h-11.585zm-9.5483 31.222c-0.28623-0.20826-0.40481-0.57587-0.29511-0.91346l2.5425-7.8025 18.63 23.885zm27.708 23.857c-0.0059-0.0047-0.01152-0.0098-0.01718-0.01473-0.0011-9.44e-4 -0.0023-0.0023-0.0036-0.0032-0.01133-0.0094-0.02247-0.01907-0.03342-0.02889-0.02152-0.01869-0.04267-0.03776-0.06287-0.05778 0.0017 0.0015 0.0036 0.0028 0.0053 0.0043 0.0023 0.0021 0.0047 0.0038 7e-3 0.0059 0.04324 0.04135 0.08874 0.08024 0.13632 0.11612 5.67e-4 3.77e-4 9.45e-4 9.44e-4 0.0015 0.0013 0.0023 0.0017 0.0042 0.0038 0.0064 0.0057-0.01303-0.0094-0.02662-0.0185-0.03946-0.0287zm0.93933-6.0602-4.8458-14.927-4.2984-13.241h18.302zm0.99182 6.0134c-0.01133 0.0098-0.02228 0.01964-0.0338 0.02908-0.0013 0.0011-0.0026 0.0025-4e-3 0.0036-0.0059 0.0047-0.01133 0.0098-0.01699 0.01454-0.01246 0.01001-0.02606 0.01907-0.03908 0.0287 0.0023-0.0017 0.0042-4e-3 0.0066-0.0055l0.0011-0.0011c0.04758-0.03587 0.09289-0.07439 0.13575-0.11574 0.0017-0.0017 0.0038-3e-3 0.0055-0.0045 0.0023-0.0021 0.0047-0.0038 0.0068-0.0059-0.02001 0.01945-0.04097 0.03833-0.06193 0.05683zm27.658-23.811-20.874 15.165 18.636-23.878 2.5323 7.7992c0.10989 0.3391-0.0085 0.70671-0.29416 0.9144z"/>
</svg>
