<?xml version="1.0" encoding="UTF-8"?>
<!--
SPDX-FileCopyrightText: Liberapay

SPDX-License-Identifier: CC0-1.0
-->
<svg width="64" height="64" version="1.1" viewBox="0 0 64 64" xmlns="http://www.w3.org/2000/svg">
 <path d="m26.685-2.5e-6 -10.322 1.5985-8.4562 35.358c-0.48999 2.0871-0.74354 4.0523-0.76562 5.8938-0.0228 1.8426 0.35427 3.4749 1.1312 4.8955 0.77694 1.4214 2.0642 2.5415 3.8626 3.3625 1.7984 0.8211 4.2723 1.2312 7.425 1.2312v-0.0034l1.9985-8.1906c-1.1548-0.08828-2.055-0.28843-2.6986-0.60006-0.64362-0.30987-1.0973-0.72002-1.364-1.2312-0.26663-0.51031-0.39023-1.0983-0.36731-1.764 0.022-0.6657 0.12172-1.3996 0.30003-2.1986zm15.923 15.857c-2.6636 0-5.1395 0.20999-7.425 0.6311-2.2867 0.42291-4.3195 0.90058-6.0938 1.433l-11.053 46.079h9.8549l2.997-12.052c1.5088 0.26663 3.0185 0.40007 4.5283 0.40007 3.1068 0 5.9818-0.54614 8.6238-1.633 2.6407-1.0877 4.9031-2.6071 6.7906-4.5611 1.8814-1.9529 3.3591-4.2711 4.4247-6.9578 1.0657-2.6839 1.5985-5.6498 1.5985-8.891l0.0068 0.0018c0-1.9979-0.27759-3.8706-0.83114-5.625-0.55622-1.7534-1.4102-3.2853-2.5641-4.5955-1.1583-1.3093-2.6332-2.3421-4.4315-3.097-1.7976-0.75398-3.9397-1.1312-6.425-1.1312zm-1.2622 8.3218c2.0862 0 3.5514 0.66718 4.3955 1.9985 0.84226 1.3314 1.264 2.9531 1.264 4.8611 0 1.9538-0.27671 3.7393-0.83114 5.3595-0.55622 1.6218-1.3328 3.0087-2.3313 4.1627-0.99941 1.1548-2.2093 2.0542-3.6298 2.6969-1.4206 0.6445-2.9969 0.96565-4.7283 0.96565-1.1098 0-2.0412-0.0872-2.7952-0.26555l4.6611-19.378c1.2422-0.26663 2.5739-0.40007 3.9954-0.40007z"/>
</svg>
