<?xml version="1.0" encoding="UTF-8"?>
<!--
SPDX-FileCopyrightText: Matrix.org Foundation

SPDX-License-Identifier: Apache-2.0
-->
<svg width="64" height="64" version="1.1" viewBox="0 0 64 64" xmlns="http://www.w3.org/2000/svg">
 <path d="m0.37501 0.046a0.3751 0.3751 0 0 0-0.37501 0.37501v63.158a0.3751 0.3751 0 0 0 0.37501 0.37501h6.0002a0.3751 0.3751 0 0 0 0.37501-0.37501v-1.4454a0.3751 0.3751 0 0 0-0.37501-0.37501h-3.961v-59.518h3.961a0.3751 0.3751 0 0 0 0.37501-0.37501v-1.4454a0.3751 0.3751 0 0 0-0.37501-0.37501zm57.25 0a0.3751 0.3751 0 0 0-0.37501 0.37501v1.4454a0.3751 0.3751 0 0 0 0.37501 0.37501h3.961v59.518h-3.961a0.3751 0.3751 0 0 0-0.37501 0.37501v1.4454a0.3751 0.3751 0 0 0 0.37501 0.37501h6.0002a0.3751 0.3751 0 0 0 0.37501-0.37501v-63.158a0.3751 0.3751 0 0 0-0.37501-0.37501zm-30.071 19.938c-1.5352 0-2.9182 0.33661-4.1249 1.0078-0.96679 0.53798-1.7333 1.3782-2.4688 2.2657v-2.2892a0.3751 0.3751 0 0 0-0.37501-0.37501h-5.8438a0.3751 0.3751 0 0 0-0.37501 0.37501v22.532a0.3751 0.3751 0 0 0 0.37501 0.37501h6.1878a0.3751 0.3751 0 0 0 0.37501-0.37501v-13.071c0-1.0674 0.15856-1.9107 0.44533-2.5235 0.30173-0.64406 0.6517-1.1188 1.0469-1.4376 0.41641-0.33557 0.83487-0.55646 1.2578-0.6719 0.46025-0.12572 0.8203-0.17969 1.0547-0.17969 0.94479 0 1.6234 0.16536 2.0391 0.43753 0.44949 0.29601 0.75446 0.67354 0.94535 1.1563 0.20173 0.51106 0.31737 1.0714 0.34377 1.6876 0.0272 0.64874 0.04688 1.299 0.04688 1.961v12.641a0.3751 0.3751 0 0 0 0.37501 0.37501h6.1878a0.3751 0.3751 0 0 0 0.37501-0.37501v-12.547c0-0.67898 0.04888-1.3523 0.14844-2.0157 0.09548-0.64294 0.28229-1.2085 0.56254-1.7032 0.27461-0.48366 0.6525-0.86839 1.1407-1.1719 0.46073-0.28537 1.0911-0.44533 1.9141-0.44533 0.82931 0 1.454 0.13888 1.8829 0.38281 0.45234 0.25897 0.77906 0.59982 1.0078 1.0313 0.23413 0.44269 0.38221 0.97391 0.43753 1.6016 0.05804 0.65558 0.08596 1.3561 0.08596 2.1016v12.766a0.3751 0.3751 0 0 0 0.37501 0.37501h6.1878a0.3751 0.3751 0 0 0 0.37501-0.37501v-15.078c0-1.4878-0.20457-2.7717-0.63282-3.8595-0.42571-1.0764-1.0303-1.9659-1.8048-2.6485-0.7703-0.67758-1.6947-1.1727-2.7579-1.4766-1.0546-0.30097-2.1926-0.45313-3.4142-0.45313-1.6292 0-3.0688 0.39745-4.2813 1.1954-1.0495 0.69042-1.8386 1.5228-2.5079 2.4142-0.63014-1.2027-1.4086-2.2189-2.5235-2.7423-1.2287-0.57574-2.591-0.86723-4.0625-0.86723z"/>
</svg>
