<?xml version="1.0" encoding="UTF-8"?>
<!--
SPDX-FileCopyrightText: 2012 Michal Čihař <michal@cihar.com>

SPDX-License-Identifier: CC-BY-SA-3.0
-->
<svg width="64" height="64" version="1.1" viewBox="0 0 64 64" xmlns="http://www.w3.org/2000/svg">
 <path d="m32.012 17.844c-4e-3 -9.5e-5 -0.0081-1.78e-4 -0.01185-2.49e-4 -4e-3 7.1e-5 -0.0081 1.54e-4 -0.01185 2.49e-4 -0.26133-0.0036-0.52321 0.0425-0.77252 0.14786-1.4144 0.59878-2.3059 2.1342-2.8651 3.6684-0.48547 1.3316-0.70035 2.7617-0.7035 4.173l-0.0038 0.18468c-0.0045 0.07189-0.01019 0.14352-0.01778 0.21492 0.05193 3.5992 0.72903 7.2249 2.1527 10.536 1.5945 3.7084 4.1289 7.1199 7.7075 8.6793 2.6996 1.1766 5.6922 0.89903 8.1389-0.48673 3.0379-1.7206 5.2295-4.763 6.664-8.0303 2.98-6.7906 3.0516-15.069 0.07796-22.038 2.8982-1.5014 2.8918-4.4949 2.8918-4.4949s2.7148 1.9455 5.7676 0.724c4.0652 9.5255 3.967 20.741-0.31938 30.123-2.5059 5.4848-6.5749 10.29-11.9 12.762-4.7403 2.2011-10.314 2.2561-15.058 0.18875-4.2631-1.8584-7.7305-5.2067-10.225-9.0998-3.6129-5.6386-5.3238-12.503-5.3314-19.268h0.02804c-0.0021-0.07125-0.0031-0.14251-0.0023-0.2139 0.05495-6.0831 2.5477-12.278 7.5475-15.458 1.8361-1.1676 3.9817-1.8361 6.1478-1.86 0.02479-1.92e-4 0.0503-3.13e-4 0.07545-3.58e-4 0.03269-2.4e-5 0.06663 1.04e-4 0.09934 3.58e-4 2.1658 0.02387 4.3115 0.69238 6.1478 1.86 4.9998 3.1794 7.4925 9.375 7.5475 15.458 7.53e-4 0.0714-1.26e-4 0.14265-0.0023 0.2139h0.02804c-0.0073 6.4287-1.5529 12.948-4.8076 18.419-0.93352-5e-3 -1.8638-0.19473-2.7406-0.57692-1.9753-0.86073-3.7146-2.4863-5.1297-4.6857 0.40353-0.71741 0.76722-1.4603 1.0919-2.2155 1.4237-3.3112 2.1008-6.9371 2.1527-10.536-0.0076-0.0714-0.01351-0.14303-0.01778-0.21492l-0.0038-0.1847c-0.0031-1.4112-0.21803-2.8414-0.7035-4.173-0.55929-1.5341-1.4508-3.0696-2.8651-3.6684-0.24941-0.10539-0.51136-0.15144-0.77252-0.14827v4.27e-4zm-2.097 36.494c-4.6696 1.921-10.093 1.8179-14.722-0.33135-5.325-2.4723-9.3937-7.2772-11.9-12.762-4.2863-9.3817-4.3845-20.597-0.31938-30.123 3.0528 1.2215 5.7676-0.724 5.7676-0.724s-0.0064 2.9935 2.8918 4.4949c-2.9736 6.9684-2.902 15.247 0.07796 22.038 1.4347 3.2673 3.6262 6.3099 6.664 8.0303 1.0843 0.61407 2.2757 1.0105 3.5013 1.1593 0.0045 7e-3 9e-3 0.0142 0.01351 0.0213 2.1643 3.3778 4.8908 6.1928 8.0244 8.196z"/>
</svg>
